<?xml version="1.0" standalone="no"?>
 <!DOCTYPE svg PUBLIC "-//W3C//DTD SVG 1.1//EN" 
 "http://www.w3.org/Graphics/SVG/1.1/DTD/svg11.dtd"> 
<svg xmlns="http://www.w3.org/2000/svg" version="1.1" 
    width="29.7002cm" height="21.0007cm" viewBox="0 0 116930 82680 ">
<title>SVG Picture created as esp8266_programmer-B.Cu.svg date 2018/05/19 22:52:36 </title>
  <desc>Picture generated by PCBNEW </desc>
<g style="fill:#000000; fill-opacity:1;stroke:#000000; stroke-opacity:1;
stroke-linecap:round; stroke-linejoin:round; "
 transform="translate(0 0) scale(1 1)">
</g>
<g style="fill:#000000; fill-opacity:0.0; 
stroke:#000000; stroke-width:-0.000393701; stroke-opacity:1; 
stroke-linecap:round; stroke-linejoin:round;">
</g>
<g style="fill:#000000; fill-opacity:0.0; 
stroke:#000000; stroke-width:98.4252; stroke-opacity:1; 
stroke-linecap:round; stroke-linejoin:round;">
<path d="M57827 40357
L57631 40357
" />
<path d="M57546 40667
L57827 40667
L57827 40076
L57546 40076
" />
<path d="M57321 40639
L57237 40667
L57096 40667
L57040 40639
L57012 40610
L56984 40554
L56984 40498
L57012 40442
L57040 40414
L57096 40385
L57209 40357
L57265 40329
L57293 40301
L57321 40245
L57321 40189
L57293 40132
L57265 40104
L57209 40076
L57068 40076
L56984 40104
" />
<path d="M56731 40667
L56731 40076
L56506 40076
L56449 40104
L56421 40132
L56393 40189
L56393 40273
L56421 40329
L56449 40357
L56506 40385
L56731 40385
" />
<path d="M56056 40329
L56112 40301
L56140 40273
L56168 40217
L56168 40189
L56140 40132
L56112 40104
L56056 40076
L55943 40076
L55887 40104
L55859 40132
L55831 40189
L55831 40217
L55859 40273
L55887 40301
L55943 40329
L56056 40329
L56112 40357
L56140 40385
L56168 40442
L56168 40554
L56140 40610
L56112 40639
L56056 40667
L55943 40667
L55887 40639
L55859 40610
L55831 40554
L55831 40442
L55859 40385
L55887 40357
L55943 40329
" />
<path d="M55606 40132
L55578 40104
L55521 40076
L55381 40076
L55325 40104
L55296 40132
L55268 40189
L55268 40245
L55296 40329
L55634 40667
L55268 40667
" />
<path d="M54762 40076
L54875 40076
L54931 40104
L54959 40132
L55015 40217
L55043 40329
L55043 40554
L55015 40610
L54987 40639
L54931 40667
L54818 40667
L54762 40639
L54734 40610
L54706 40554
L54706 40414
L54734 40357
L54762 40329
L54818 40301
L54931 40301
L54987 40329
L55015 40357
L55043 40414
" />
<path d="M54200 40076
L54312 40076
L54368 40104
L54397 40132
L54453 40217
L54481 40329
L54481 40554
L54453 40610
L54425 40639
L54368 40667
L54256 40667
L54200 40639
L54172 40610
L54143 40554
L54143 40414
L54172 40357
L54200 40329
L54256 40301
L54368 40301
L54425 40329
L54453 40357
L54481 40414
" />
</g>
<g style="fill:#000000; fill-opacity:1.0; 
stroke:#000000; stroke-width:0; stroke-opacity:1; 
stroke-linecap:round; stroke-linejoin:round;">
<circle cx="60971.7" cy="45175" r="393.701" /> 
</g>
<g style="fill:#000000; fill-opacity:1.0; 
stroke:#000000; stroke-width:393.701; stroke-opacity:1; 
stroke-linecap:round; stroke-linejoin:round;">
</g>
<g style="fill:#000000; fill-opacity:1.0; 
stroke:#000000; stroke-width:0; stroke-opacity:1; 
stroke-linecap:round; stroke-linejoin:round;">
<circle cx="59200" cy="45175" r="393.701" /> 
</g>
<g style="fill:#000000; fill-opacity:1.0; 
stroke:#000000; stroke-width:393.701; stroke-opacity:1; 
stroke-linecap:round; stroke-linejoin:round;">
</g>
<g style="fill:#000000; fill-opacity:1.0; 
stroke:#000000; stroke-width:0; stroke-opacity:1; 
stroke-linecap:round; stroke-linejoin:round;">
<circle cx="60971.7" cy="42615.9" r="393.701" /> 
</g>
<g style="fill:#000000; fill-opacity:1.0; 
stroke:#000000; stroke-width:393.701; stroke-opacity:1; 
stroke-linecap:round; stroke-linejoin:round;">
</g>
<g style="fill:#000000; fill-opacity:1.0; 
stroke:#000000; stroke-width:0; stroke-opacity:1; 
stroke-linecap:round; stroke-linejoin:round;">
<circle cx="59200" cy="42615.9" r="393.701" /> 
</g>
<g style="fill:#000000; fill-opacity:1.0; 
stroke:#000000; stroke-width:393.701; stroke-opacity:1; 
stroke-linecap:round; stroke-linejoin:round;">
</g>
<g style="fill:#000000; fill-opacity:1.0; 
stroke:#000000; stroke-width:0; stroke-opacity:1; 
stroke-linecap:round; stroke-linejoin:round;">
<polyline style="fill-rule:evenodd;"
points="56485,43285
57114,43285
57114,43914
56485,43914
56485,43285
" /> 
<circle cx="56800" cy="44584.3" r="314.961" /> 
</g>
<g style="fill:#000000; fill-opacity:1.0; 
stroke:#000000; stroke-width:393.701; stroke-opacity:1; 
stroke-linecap:round; stroke-linejoin:round;">
</g>
<g style="fill:#000000; fill-opacity:1.0; 
stroke:#000000; stroke-width:0; stroke-opacity:1; 
stroke-linecap:round; stroke-linejoin:round;">
<polyline style="fill-rule:evenodd;"
points="63745,41634
63745,40965
64611,40965
64611,41634
63745,41634
" /> 
</g>
<g style="fill:#000000; fill-opacity:1.0; 
stroke:#000000; stroke-width:669.291; stroke-opacity:1; 
stroke-linecap:round; stroke-linejoin:round;">
</g>
<g style="fill:#000000; fill-opacity:0.0; 
stroke:#000000; stroke-width:669.291; stroke-opacity:1; 
stroke-linecap:round; stroke-linejoin:round;">
<path d="M62922 41300
L63119 41300
" />
<path d="M64080 42300
L64277 42300
" />
<path d="M62922 42300
L63119 42300
" />
<path d="M64080 43300
L64277 43300
" />
<path d="M62922 43300
L63119 43300
" />
<path d="M64080 44300
L64277 44300
" />
<path d="M62922 44300
L63119 44300
" />
</g>
<g style="fill:#000000; fill-opacity:0.0; 
stroke:#000000; stroke-width:0; stroke-opacity:1; 
stroke-linecap:round; stroke-linejoin:round;">
</g>
<g style="fill:#000000; fill-opacity:1.0; 
stroke:#000000; stroke-width:0; stroke-opacity:1; 
stroke-linecap:round; stroke-linejoin:round;">
<polyline style="fill-rule:evenodd;"
points="51084,43915
51084,44584
50415,44584
50415,43915
51084,43915
" /> 
</g>
<g style="fill:#000000; fill-opacity:1.0; 
stroke:#000000; stroke-width:669.291; stroke-opacity:1; 
stroke-linecap:round; stroke-linejoin:round;">
</g>
<g style="fill:#000000; fill-opacity:0.0; 
stroke:#000000; stroke-width:669.291; stroke-opacity:1; 
stroke-linecap:round; stroke-linejoin:round;">
<path d="M50750 43250
L50750 43250
" />
<path d="M50750 42250
L50750 42250
" />
<path d="M50750 41250
L50750 41250
" />
</g>
<g style="fill:#000000; fill-opacity:0.0; 
stroke:#000000; stroke-width:0; stroke-opacity:1; 
stroke-linecap:round; stroke-linejoin:round;">
</g>
<g style="fill:#000000; fill-opacity:1.0; 
stroke:#000000; stroke-width:0; stroke-opacity:1; 
stroke-linecap:round; stroke-linejoin:round;">
<polyline style="fill-rule:evenodd;"
points="54854,44604
54145,44604
54145,43895
54854,43895
54854,44604
" /> 
</g>
<g style="fill:#000000; fill-opacity:1.0; 
stroke:#000000; stroke-width:708.661; stroke-opacity:1; 
stroke-linecap:round; stroke-linejoin:round;">
</g>
<g style="fill:#000000; fill-opacity:0.0; 
stroke:#000000; stroke-width:708.661; stroke-opacity:1; 
stroke-linecap:round; stroke-linejoin:round;">
<path d="M54500 43250
L54500 43250
" />
<path d="M54500 42250
L54500 42250
" />
</g>
<g style="fill:#000000; fill-opacity:0.0; 
stroke:#000000; stroke-width:0; stroke-opacity:1; 
stroke-linecap:round; stroke-linejoin:round;">
</g>
<g style="fill:#000000; fill-opacity:1.0; 
stroke:#000000; stroke-width:0; stroke-opacity:1; 
stroke-linecap:round; stroke-linejoin:round;">
<polyline style="fill-rule:evenodd;"
points="60565,39565
61234,39565
61234,40234
60565,40234
60565,39565
" /> 
</g>
<g style="fill:#000000; fill-opacity:1.0; 
stroke:#000000; stroke-width:669.291; stroke-opacity:1; 
stroke-linecap:round; stroke-linejoin:round;">
</g>
<g style="fill:#000000; fill-opacity:0.0; 
stroke:#000000; stroke-width:669.291; stroke-opacity:1; 
stroke-linecap:round; stroke-linejoin:round;">
<path d="M59900 39900
L59900 39900
" />
</g>
<g style="fill:#000000; fill-opacity:1.0; 
stroke:#000000; stroke-width:0; stroke-opacity:1; 
stroke-linecap:round; stroke-linejoin:round;">
<circle cx="52500" cy="42250" r="314.961" /> 
</g>
<g style="fill:#000000; fill-opacity:1.0; 
stroke:#000000; stroke-width:393.701; stroke-opacity:1; 
stroke-linecap:round; stroke-linejoin:round;">
</g>
<g style="fill:#000000; fill-opacity:1.0; 
stroke:#000000; stroke-width:0; stroke-opacity:1; 
stroke-linecap:round; stroke-linejoin:round;">
<circle cx="52500" cy="43234.3" r="314.961" /> 
</g>
<g style="fill:#000000; fill-opacity:1.0; 
stroke:#000000; stroke-width:393.701; stroke-opacity:1; 
stroke-linecap:round; stroke-linejoin:round;">
</g>
<g style="fill:#000000; fill-opacity:0.0; 
stroke:#000000; stroke-width:393.701; stroke-opacity:1; 
stroke-linecap:round; stroke-linejoin:round;">
<path d="M54500 42250
L52500 42250
" />
<path d="M50750 42250
L52500 42250
" />
</g>
<g style="fill:#000000; fill-opacity:0.0; 
stroke:#000000; stroke-width:196.85; stroke-opacity:1; 
stroke-linecap:round; stroke-linejoin:round;">
<path d="M63100 44300
L61650 44300
" />
<path d="M60950 43600
L56800 43600
" />
<path d="M61650 44300
L60950 43600
" />
<path d="M63100 42300
L62675 42300
" />
<path d="M62675 42300
L62150 41775
" />
<path d="M62150 41775
L57550 41775
" />
<path d="M57550 41775
L56800 42525
" />
<path d="M56800 42525
L56800 43600
" />
<path d="M54500 43250
L56450 43250
" />
<path d="M56450 43250
L56800 43600
" />
<path d="M63100 41300
L50800 41300
" />
<path d="M50800 41300
L50750 41250
" />
<path d="M50750 44250
L50750 44650
" />
<path d="M64100 45000
L63200 45900
" />
<path d="M63200 45900
L52000 45900
" />
<path d="M52000 45900
L50800 44700
" />
<path d="M64100 45000
L64100 44300
" />
<path d="M50750 44650
L50800 44700
" />
<path d="M50750 44250
L50750 44550
" />
<path d="M63100 43300
L61655 43300
" />
<path d="M61655 43300
L60971 42615
" />
<path d="M64100 43300
L64700 43300
" />
<path d="M64775 39900
L60900 39900
" />
<path d="M65300 40425
L64775 39900
" />
<path d="M65300 42700
L65300 40425
" />
<path d="M64700 43300
L65300 42700
" />
</g>
<g style="fill:#000000; fill-opacity:1.0; 
stroke:#000000; stroke-width:100; stroke-opacity:1; 
stroke-linecap:round; stroke-linejoin:round;">
<polyline style="fill-rule:evenodd;"
points="66550,46250
63459,46250
63513,46213
64413,45313
64509,45169
64522,45104
64543,45000
64543,44929
64552,44928
64773,44780
64920,44560
64972,44300
64920,44039
64773,43819
64744,43800
64773,43780
64812,43721
64869,43709
65013,43613
65613,43013
65709,42869
65721,42810
65743,42700
65743,40425
65709,40255
65613,40111
65088,39586
64944,39490
64775,39456
61566,39456
61562,39437
61486,39319
61371,39241
61234,39213
60565,39213
60437,39237
60319,39313
60241,39428
60239,39433
60201,39399
60040,39332
59950,39380
59950,39850
59957,39850
59957,39950
59950,39950
59950,40419
60040,40467
60201,40400
60239,40366
60313,40480
60428,40558
60565,40586
61234,40586
61362,40562
61480,40486
61558,40371
61564,40343
64591,40343
64856,40608
64856,40902
64823,40823
64753,40753
64661,40715
64291,40715
64228,40777
64228,41250
64236,41250
64236,41350
64228,41350
64228,41357
64128,41357
64128,41350
64120,41350
64120,41250
64128,41250
64128,40777
64066,40715
63695,40715
63604,40753
63569,40788
63395,40671
63134,40620
62907,40620
62647,40671
62426,40819
62402,40856
58313,40856
58313,40040
59332,40040
59429,40246
59598,40400
59759,40467
59850,40419
59850,39950
59379,39950
59332,40040
58313,40040
58313,39759
59332,39759
59379,39850
59850,39850
59850,39380
59759,39332
59598,39399
59429,39553
59332,39759
58313,39759
58313,39592
53686,39592
53686,40856
51302,40856
51244,40769
51023,40621
50763,40570
50736,40570
50476,40621
50255,40769
50108,40989
50056,41250
50108,41510
50255,41730
50284,41750
50255,41769
50108,41989
50056,42250
50108,42510
50255,42730
50374,42810
50249,42948
50182,43109
50230,43200
50700,43200
50700,43192
50800,43192
50800,43200
51269,43200
51296,43148
51930,43148
51941,43373
52006,43531
52103,43560
52429,43234
52570,43234
52896,43560
52993,43531
53069,43319
53058,43095
52993,42937
52896,42908
52570,43234
52429,43234
52103,42908
52006,42937
51930,43148
51296,43148
51317,43109
51250,42948
51125,42810
51152,42792
52108,42792
52125,42809
52176,42830
52173,42837
52500,43163
52826,42837
52823,42830
52873,42810
52891,42792
53971,42792
53853,42968
53800,43236
53800,43263
53853,43531
53974,43712
53933,43754
53895,43845
53895,44137
53958,44200
54450,44200
54450,44192
54550,44192
54550,44200
55041,44200
55104,44137
55104,43845
55066,43754
55025,43712
55037,43693
56132,43693
56132,43914
56157,44042
56232,44160
56348,44239
56393,44248
56403,44258
56306,44287
56230,44498
56241,44723
56306,44881
56403,44910
56729,44584
56723,44578
56794,44507
56800,44513
56805,44507
56876,44578
56870,44584
57196,44910
57293,44881
57351,44721
58816,44721
59200,45104
59583,44721
59544,44616
59304,44527
59048,44536
58855,44616
58816,44721
57351,44721
57369,44669
57358,44445
57293,44287
57196,44258
57204,44250
57242,44242
57360,44167
57439,44051
57440,44043
60766,44043
61186,44464
61119,44436
60825,44435
60553,44548
60345,44755
60232,45027
60232,45321
60288,45456
59782,45456
59847,45279
59838,45023
59758,44830
59653,44791
59270,45175
59276,45180
59205,45251
59200,45245
59194,45251
59123,45180
59129,45175
58746,44791
58641,44830
58552,45070
58561,45326
58615,45456
52183,45456
51708,44981
56473,44981
56503,45077
56714,45153
56939,45143
57096,45077
57126,44981
56800,44654
56473,44981
51708,44981
51415,44688
51436,44584
51436,44362
53895,44362
53895,44654
53933,44745
54004,44816
54095,44854
54387,44854
54450,44791
54450,44300
54550,44300
54550,44791
54612,44854
54904,44854
54995,44816
55066,44745
55104,44654
55104,44362
55041,44300
54550,44300
54450,44300
53958,44300
53895,44362
51436,44362
51436,43915
51412,43787
51336,43669
51280,43631
52173,43631
52203,43727
52414,43803
52639,43793
52796,43727
52826,43631
52500,43304
52173,43631
51280,43631
51221,43591
51216,43589
51250,43551
51317,43390
51269,43300
50800,43300
50800,43307
50700,43307
50700,43300
50230,43300
50182,43390
50249,43551
50283,43589
50169,43663
50091,43778
50063,43915
50063,44584
50087,44712
50163,44830
50278,44908
50415,44936
50418,44936
50436,44963
51686,46213
51740,46250
49250,46250
49250,39150
66550,39150
66550,46250
" /> 
<polyline style="fill-rule:evenodd;"
points="58746,42232
58641,42271
58552,42511
58561,42767
58641,42960
58746,42998
59129,42615
59123,42610
59194,42539
59200,42545
59205,42539
59276,42610
59270,42615
59653,42998
59758,42960
59847,42720
59838,42464
59758,42271
59653,42232
59667,42218
60336,42218
60232,42468
60232,42762
60344,43033
60466,43156
59551,43156
59583,43069
59200,42686
58816,43069
58848,43156
57442,43156
57367,43039
57251,42960
57243,42959
57243,42708
57733,42218
58732,42218
58746,42232
" /> 
</g>
<g style="fill:#FFFFFF; fill-opacity:1.0; 
stroke:#FFFFFF; stroke-width:100; stroke-opacity:1; 
stroke-linecap:round; stroke-linejoin:round;">
</g>
<g style="fill:#FFFFFF; fill-opacity:1.0; 
stroke:#FFFFFF; stroke-width:0; stroke-opacity:1; 
stroke-linecap:round; stroke-linejoin:round;">
<circle cx="60971.7" cy="45175" r="216.535" /> 
</g>
<g style="fill:#FFFFFF; fill-opacity:1.0; 
stroke:#FFFFFF; stroke-width:393.701; stroke-opacity:1; 
stroke-linecap:round; stroke-linejoin:round;">
</g>
<g style="fill:#FFFFFF; fill-opacity:1.0; 
stroke:#FFFFFF; stroke-width:0; stroke-opacity:1; 
stroke-linecap:round; stroke-linejoin:round;">
<circle cx="59200" cy="45175" r="216.535" /> 
</g>
<g style="fill:#FFFFFF; fill-opacity:1.0; 
stroke:#FFFFFF; stroke-width:393.701; stroke-opacity:1; 
stroke-linecap:round; stroke-linejoin:round;">
</g>
<g style="fill:#FFFFFF; fill-opacity:1.0; 
stroke:#FFFFFF; stroke-width:0; stroke-opacity:1; 
stroke-linecap:round; stroke-linejoin:round;">
<circle cx="60971.7" cy="42615.9" r="216.535" /> 
</g>
<g style="fill:#FFFFFF; fill-opacity:1.0; 
stroke:#FFFFFF; stroke-width:393.701; stroke-opacity:1; 
stroke-linecap:round; stroke-linejoin:round;">
</g>
<g style="fill:#FFFFFF; fill-opacity:1.0; 
stroke:#FFFFFF; stroke-width:0; stroke-opacity:1; 
stroke-linecap:round; stroke-linejoin:round;">
<circle cx="59200" cy="42615.9" r="216.535" /> 
</g>
<g style="fill:#FFFFFF; fill-opacity:1.0; 
stroke:#FFFFFF; stroke-width:393.701; stroke-opacity:1; 
stroke-linecap:round; stroke-linejoin:round;">
</g>
<g style="fill:#FFFFFF; fill-opacity:1.0; 
stroke:#FFFFFF; stroke-width:0; stroke-opacity:1; 
stroke-linecap:round; stroke-linejoin:round;">
<circle cx="56800" cy="43600" r="157.48" /> 
</g>
<g style="fill:#FFFFFF; fill-opacity:1.0; 
stroke:#FFFFFF; stroke-width:393.701; stroke-opacity:1; 
stroke-linecap:round; stroke-linejoin:round;">
</g>
<g style="fill:#FFFFFF; fill-opacity:1.0; 
stroke:#FFFFFF; stroke-width:0; stroke-opacity:1; 
stroke-linecap:round; stroke-linejoin:round;">
<circle cx="56800" cy="44584.3" r="157.48" /> 
</g>
<g style="fill:#FFFFFF; fill-opacity:1.0; 
stroke:#FFFFFF; stroke-width:393.701; stroke-opacity:1; 
stroke-linecap:round; stroke-linejoin:round;">
</g>
<g style="fill:#FFFFFF; fill-opacity:1.0; 
stroke:#FFFFFF; stroke-width:0; stroke-opacity:1; 
stroke-linecap:round; stroke-linejoin:round;">
<circle cx="64100" cy="41300" r="196.85" /> 
</g>
<g style="fill:#FFFFFF; fill-opacity:1.0; 
stroke:#FFFFFF; stroke-width:393.701; stroke-opacity:1; 
stroke-linecap:round; stroke-linejoin:round;">
</g>
<g style="fill:#FFFFFF; fill-opacity:1.0; 
stroke:#FFFFFF; stroke-width:0; stroke-opacity:1; 
stroke-linecap:round; stroke-linejoin:round;">
<circle cx="63100" cy="41300" r="196.85" /> 
</g>
<g style="fill:#FFFFFF; fill-opacity:1.0; 
stroke:#FFFFFF; stroke-width:393.701; stroke-opacity:1; 
stroke-linecap:round; stroke-linejoin:round;">
</g>
<g style="fill:#FFFFFF; fill-opacity:1.0; 
stroke:#FFFFFF; stroke-width:0; stroke-opacity:1; 
stroke-linecap:round; stroke-linejoin:round;">
<circle cx="64100" cy="42300" r="196.85" /> 
</g>
<g style="fill:#FFFFFF; fill-opacity:1.0; 
stroke:#FFFFFF; stroke-width:393.701; stroke-opacity:1; 
stroke-linecap:round; stroke-linejoin:round;">
</g>
<g style="fill:#FFFFFF; fill-opacity:1.0; 
stroke:#FFFFFF; stroke-width:0; stroke-opacity:1; 
stroke-linecap:round; stroke-linejoin:round;">
<circle cx="63100" cy="42300" r="196.85" /> 
</g>
<g style="fill:#FFFFFF; fill-opacity:1.0; 
stroke:#FFFFFF; stroke-width:393.701; stroke-opacity:1; 
stroke-linecap:round; stroke-linejoin:round;">
</g>
<g style="fill:#FFFFFF; fill-opacity:1.0; 
stroke:#FFFFFF; stroke-width:0; stroke-opacity:1; 
stroke-linecap:round; stroke-linejoin:round;">
<circle cx="64100" cy="43300" r="196.85" /> 
</g>
<g style="fill:#FFFFFF; fill-opacity:1.0; 
stroke:#FFFFFF; stroke-width:393.701; stroke-opacity:1; 
stroke-linecap:round; stroke-linejoin:round;">
</g>
<g style="fill:#FFFFFF; fill-opacity:1.0; 
stroke:#FFFFFF; stroke-width:0; stroke-opacity:1; 
stroke-linecap:round; stroke-linejoin:round;">
<circle cx="63100" cy="43300" r="196.85" /> 
</g>
<g style="fill:#FFFFFF; fill-opacity:1.0; 
stroke:#FFFFFF; stroke-width:393.701; stroke-opacity:1; 
stroke-linecap:round; stroke-linejoin:round;">
</g>
<g style="fill:#FFFFFF; fill-opacity:1.0; 
stroke:#FFFFFF; stroke-width:0; stroke-opacity:1; 
stroke-linecap:round; stroke-linejoin:round;">
<circle cx="64100" cy="44300" r="196.85" /> 
</g>
<g style="fill:#FFFFFF; fill-opacity:1.0; 
stroke:#FFFFFF; stroke-width:393.701; stroke-opacity:1; 
stroke-linecap:round; stroke-linejoin:round;">
</g>
<g style="fill:#FFFFFF; fill-opacity:1.0; 
stroke:#FFFFFF; stroke-width:0; stroke-opacity:1; 
stroke-linecap:round; stroke-linejoin:round;">
<circle cx="63100" cy="44300" r="196.85" /> 
</g>
<g style="fill:#FFFFFF; fill-opacity:1.0; 
stroke:#FFFFFF; stroke-width:393.701; stroke-opacity:1; 
stroke-linecap:round; stroke-linejoin:round;">
</g>
<g style="fill:#FFFFFF; fill-opacity:1.0; 
stroke:#FFFFFF; stroke-width:0; stroke-opacity:1; 
stroke-linecap:round; stroke-linejoin:round;">
<circle cx="50750" cy="44250" r="196.85" /> 
</g>
<g style="fill:#FFFFFF; fill-opacity:1.0; 
stroke:#FFFFFF; stroke-width:393.701; stroke-opacity:1; 
stroke-linecap:round; stroke-linejoin:round;">
</g>
<g style="fill:#FFFFFF; fill-opacity:1.0; 
stroke:#FFFFFF; stroke-width:0; stroke-opacity:1; 
stroke-linecap:round; stroke-linejoin:round;">
<circle cx="50750" cy="43250" r="196.85" /> 
</g>
<g style="fill:#FFFFFF; fill-opacity:1.0; 
stroke:#FFFFFF; stroke-width:393.701; stroke-opacity:1; 
stroke-linecap:round; stroke-linejoin:round;">
</g>
<g style="fill:#FFFFFF; fill-opacity:1.0; 
stroke:#FFFFFF; stroke-width:0; stroke-opacity:1; 
stroke-linecap:round; stroke-linejoin:round;">
<circle cx="50750" cy="42250" r="196.85" /> 
</g>
<g style="fill:#FFFFFF; fill-opacity:1.0; 
stroke:#FFFFFF; stroke-width:393.701; stroke-opacity:1; 
stroke-linecap:round; stroke-linejoin:round;">
</g>
<g style="fill:#FFFFFF; fill-opacity:1.0; 
stroke:#FFFFFF; stroke-width:0; stroke-opacity:1; 
stroke-linecap:round; stroke-linejoin:round;">
<circle cx="50750" cy="41250" r="196.85" /> 
</g>
<g style="fill:#FFFFFF; fill-opacity:1.0; 
stroke:#FFFFFF; stroke-width:393.701; stroke-opacity:1; 
stroke-linecap:round; stroke-linejoin:round;">
</g>
<g style="fill:#FFFFFF; fill-opacity:1.0; 
stroke:#FFFFFF; stroke-width:0; stroke-opacity:1; 
stroke-linecap:round; stroke-linejoin:round;">
<circle cx="54500" cy="44250" r="196.85" /> 
</g>
<g style="fill:#FFFFFF; fill-opacity:1.0; 
stroke:#FFFFFF; stroke-width:393.701; stroke-opacity:1; 
stroke-linecap:round; stroke-linejoin:round;">
</g>
<g style="fill:#FFFFFF; fill-opacity:1.0; 
stroke:#FFFFFF; stroke-width:0; stroke-opacity:1; 
stroke-linecap:round; stroke-linejoin:round;">
<circle cx="54500" cy="43250" r="196.85" /> 
</g>
<g style="fill:#FFFFFF; fill-opacity:1.0; 
stroke:#FFFFFF; stroke-width:393.701; stroke-opacity:1; 
stroke-linecap:round; stroke-linejoin:round;">
</g>
<g style="fill:#FFFFFF; fill-opacity:1.0; 
stroke:#FFFFFF; stroke-width:0; stroke-opacity:1; 
stroke-linecap:round; stroke-linejoin:round;">
<circle cx="54500" cy="42250" r="196.85" /> 
</g>
<g style="fill:#FFFFFF; fill-opacity:1.0; 
stroke:#FFFFFF; stroke-width:393.701; stroke-opacity:1; 
stroke-linecap:round; stroke-linejoin:round;">
</g>
<g style="fill:#FFFFFF; fill-opacity:1.0; 
stroke:#FFFFFF; stroke-width:0; stroke-opacity:1; 
stroke-linecap:round; stroke-linejoin:round;">
<circle cx="60900" cy="39900" r="196.85" /> 
</g>
<g style="fill:#FFFFFF; fill-opacity:1.0; 
stroke:#FFFFFF; stroke-width:393.701; stroke-opacity:1; 
stroke-linecap:round; stroke-linejoin:round;">
</g>
<g style="fill:#FFFFFF; fill-opacity:1.0; 
stroke:#FFFFFF; stroke-width:0; stroke-opacity:1; 
stroke-linecap:round; stroke-linejoin:round;">
<circle cx="59900" cy="39900" r="196.85" /> 
</g>
<g style="fill:#FFFFFF; fill-opacity:1.0; 
stroke:#FFFFFF; stroke-width:393.701; stroke-opacity:1; 
stroke-linecap:round; stroke-linejoin:round;">
</g>
<g style="fill:#FFFFFF; fill-opacity:1.0; 
stroke:#FFFFFF; stroke-width:0; stroke-opacity:1; 
stroke-linecap:round; stroke-linejoin:round;">
<circle cx="52500" cy="42250" r="157.48" /> 
</g>
<g style="fill:#FFFFFF; fill-opacity:1.0; 
stroke:#FFFFFF; stroke-width:393.701; stroke-opacity:1; 
stroke-linecap:round; stroke-linejoin:round;">
</g>
<g style="fill:#FFFFFF; fill-opacity:1.0; 
stroke:#FFFFFF; stroke-width:0; stroke-opacity:1; 
stroke-linecap:round; stroke-linejoin:round;">
<circle cx="52500" cy="43234.3" r="157.48" /> 
</g>
<g style="fill:#FFFFFF; fill-opacity:1.0; 
stroke:#FFFFFF; stroke-width:393.701; stroke-opacity:1; 
stroke-linecap:round; stroke-linejoin:round;">
</g>
<g style="fill:#000000; fill-opacity:1.0; 
stroke:#000000; stroke-width:393.701; stroke-opacity:1; 
stroke-linecap:round; stroke-linejoin:round;">
</g> 
</svg>
